<svg width="85" height="17" viewBox="0 0 85 17" fill="none" xmlns="http://www.w3.org/2000/svg">
<g id="LOGO" clip-path="url(#clip0_3277_90641)">
<path id="Vector" d="M43.9994 0.5H41V16.5H54.9992V13.4997H43.9994V0.5Z" fill="black"/>
<path id="Vector_2" d="M84.9993 0.5H70.9991V3.50029H76.4995V16.5H79.4989V3.50029H84.9993V0.5Z" fill="black"/>
<path id="Vector_3" d="M7.99953 0.5H0V16.5H7.99953C12.4177 16.5 15.9991 12.9186 15.9991 8.50047C15.9991 4.0823 12.4177 0.5 7.99953 0.5ZM7.99953 13.4997H3.00029V3.50029H8.00047C10.7619 3.50029 13.0006 5.739 13.0006 8.50047C13.0006 11.2619 10.7619 13.5006 8.00047 13.5006L7.99953 13.4997Z" fill="black"/>
<path id="Vector_4" d="M62.9995 0.5C58.5814 0.5 55 4.08136 55 8.49953C55 12.9177 58.5814 16.4991 62.9995 16.4991C67.4177 16.4991 70.9991 12.9177 70.9991 8.49953C70.9991 4.08136 67.4177 0.5 62.9995 0.5ZM62.9995 13.4997C60.2381 13.4997 57.9994 11.261 57.9994 8.49953C57.9994 5.73806 60.2381 3.49935 62.9995 3.49935C65.761 3.49935 67.9997 5.73806 67.9997 8.49953C67.9997 11.261 65.761 13.4997 62.9995 13.4997Z" fill="black"/>
<path id="Vector_5" d="M33.4997 0.5H25V16.5H28.0003V11.4998H33.5007C36.5386 11.4998 39.0011 9.03734 39.0011 5.99944C39.0011 2.96154 36.5367 0.5 33.4997 0.5ZM33.4997 8.49953H27.9994V3.50029H33.4997C34.88 3.50029 35.9998 4.61917 35.9998 6.00038C35.9998 7.38159 34.8809 8.50047 33.4997 8.50047V8.49953Z" fill="black"/>
<path id="Vector_6" d="M17.9999 16.5C19.1044 16.5 19.9998 15.6046 19.9998 14.5001C19.9998 13.3956 19.1044 12.5002 17.9999 12.5002C16.8954 12.5002 16 13.3956 16 14.5001C16 15.6046 16.8954 16.5 17.9999 16.5Z" fill="black"/>
</g>
<defs>
<clipPath id="clip0_3277_90641">
<rect width="84.9992" height="16" fill="white" transform="translate(0 0.5)"/>
</clipPath>
</defs>
</svg>
